<?xml version="1.0" encoding="UTF-8" standalone="no"?>
<svg
   xmlns:dc="http://purl.org/dc/elements/1.1/"
   xmlns:cc="http://creativecommons.org/ns#"
   xmlns:rdf="http://www.w3.org/1999/02/22-rdf-syntax-ns#"
   xmlns:svg="http://www.w3.org/2000/svg"
   xmlns="http://www.w3.org/2000/svg"
   xmlns:sodipodi="http://sodipodi.sourceforge.net/DTD/sodipodi-0.dtd"
   xmlns:inkscape="http://www.inkscape.org/namespaces/inkscape"
   width="68.393135mm"
   height="21.580822mm"
   viewBox="0 0 68.393135 21.580822"
   version="1.1"
   id="svg848"
   inkscape:version="1.0.2 (1.0.2+r75+1)"
   sodipodi:docname="logo_and_description.svg">
  <defs
     id="defs842">
    <clipPath
       id="clip0">
      <rect
         width="33.7421"
         height="33.139599"
         fill="#ffffff"
         transform="translate(13.125,13.347)"
         id="rect8"
         x="0"
         y="0" />
    </clipPath>
    <clipPath
       id="clip0-3">
      <rect
         width="151.429"
         height="30"
         fill="#ffffff"
         id="rect10514"
         x="0"
         y="0" />
    </clipPath>
  </defs>
  <sodipodi:namedview
     id="base"
     pagecolor="#ffffff"
     bordercolor="#666666"
     borderopacity="1.0"
     inkscape:pageopacity="0.0"
     inkscape:pageshadow="2"
     inkscape:zoom="2.8580614"
     inkscape:cx="215.53552"
     inkscape:cy="8.9354864"
     inkscape:document-units="mm"
     inkscape:current-layer="layer1"
     inkscape:document-rotation="0"
     showgrid="false"
     inkscape:window-width="1916"
     inkscape:window-height="1023"
     inkscape:window-x="0"
     inkscape:window-y="36"
     inkscape:window-maximized="1" />
  <metadata
     id="metadata845">
    <rdf:RDF>
      <cc:Work
         rdf:about="">
        <dc:format>image/svg+xml</dc:format>
        <dc:type
           rdf:resource="http://purl.org/dc/dcmitype/StillImage" />
        <dc:title />
      </cc:Work>
    </rdf:RDF>
  </metadata>
  <g
     inkscape:label="Layer 1"
     inkscape:groupmode="layer"
     id="layer1"
     transform="translate(-37.638684,-45.981798)">
    <g
       id="g1505"
       transform="translate(62.383229,-16.364706)">
      <circle
         cx="-16.807045"
         cy="70.284004"
         r="7.9375"
         fill="#0040a3"
         id="circle2"
         style="stroke-width:0.264583" />
      <g
         clip-path="url(#clip0)"
         id="g6"
         transform="matrix(0.26458333,0,0,0.26458333,-24.744545,62.346506)">
        <path
           d="m 37.6423,17.5604 2.2418,-2.0809 c 0.2406,-0.2222 0.3829,-0.5306 0.3956,-0.8575 0.0127,-0.3268 -0.1052,-0.6453 -0.3278,-0.8854 -0.1102,-0.1188 -0.2429,-0.2149 -0.3903,-0.2826 -0.1474,-0.0678 -0.3068,-0.1058 -0.4689,-0.1121 -0.3276,-0.0127 -0.6468,0.105 -0.8874,0.3271 l -2.2418,2.081 c -0.2413,0.2221 -0.3842,0.5308 -0.3974,0.8581 -0.0132,0.3274 0.1044,0.6465 0.327,0.8873 0.2227,0.2408 0.532,0.3834 0.86,0.3966 0.3281,0.0132 0.6479,-0.1042 0.8892,-0.3264 z m 4.9059,12.2778 -1.1417,1.0405 c -0.2413,0.2221 -0.3843,0.5308 -0.3975,0.8581 -0.0132,0.3274 0.1045,0.6465 0.3271,0.8873 0.2226,0.2408 0.532,0.3834 0.86,0.3966 0.328,0.0132 0.6478,-0.1042 0.8891,-0.3264 l 1.1418,-1.0405 c 0.2406,-0.2221 0.3829,-0.5305 0.3956,-0.8574 0.0127,-0.3268 -0.1052,-0.6453 -0.3278,-0.8854 -0.2226,-0.2401 -0.5317,-0.3821 -0.8593,-0.3947 -0.3275,-0.0127 -0.6467,0.105 -0.8873,0.3271 z m 2.2366,-15.5137 -15.724,14.5408 c -0.1191,0.1104 -0.2589,0.1962 -0.4113,0.2527 -0.1523,0.0564 -0.3144,0.0823 -0.4768,0.0763 -0.1624,-0.006 -0.3221,-0.0439 -0.4698,-0.1115 -0.1477,-0.0676 -0.2807,-0.1636 -0.3913,-0.2825 -0.1105,-0.1189 -0.1966,-0.2583 -0.2531,-0.4104 -0.0566,-0.152 -0.0826,-0.3137 -0.0765,-0.4758 0.006,-0.162 0.044,-0.3214 0.1117,-0.4688 0.0678,-0.1474 0.164,-0.2801 0.2831,-0.3904 l 6.8089,-6.2794 c 0.2413,-0.2221 0.3843,-0.5308 0.3974,-0.8581 0.0132,-0.3274 -0.1044,-0.6465 -0.327,-0.8873 -0.2226,-0.2407 -0.532,-0.3834 -0.86,-0.3966 -0.328,-0.0132 -0.6479,0.1042 -0.8892,0.3264 l -9.9422,9.1771 c -0.1191,0.1103 -0.2589,0.1962 -0.4112,0.2526 -0.1524,0.0565 -0.3144,0.0824 -0.4769,0.0764 -0.1624,-0.0061 -0.322,-0.044 -0.4698,-0.1116 -0.1477,-0.0676 -0.2807,-0.1636 -0.3912,-0.2824 -0.1106,-0.1189 -0.1966,-0.2584 -0.2532,-0.4104 -0.0566,-0.1521 -0.0826,-0.3137 -0.0765,-0.4758 0.006,-0.1621 0.044,-0.3214 0.1118,-0.4688 0.0677,-0.1474 0.1639,-0.2801 0.283,-0.3905 l 7.5701,-6.9816 c 0.2413,-0.2222 0.3842,-0.5309 0.3974,-0.8582 0.0132,-0.3273 -0.1044,-0.6465 -0.327,-0.8873 -0.2226,-0.2407 -0.532,-0.3834 -0.86,-0.3966 -0.328,-0.0131 -0.6479,0.1043 -0.8892,0.3264 l -5.6879,5.2493 c -1.933,0.7231 -3.6522,1.9204 -4.999,3.4815 -1.3468,1.5611 -2.2778,3.4356 -2.7071,5.4504 -0.4292,2.0149 -0.3429,4.1052 0.2511,6.078 0.5939,1.9728 1.6763,3.7645 3.1473,5.2097 1.471,1.4451 3.2831,2.4973 5.2691,3.0592 1.986,0.562 4.0818,0.6156 6.0941,0.156 2.0122,-0.4596 3.876,-1.4176 5.4193,-2.7857 1.5433,-1.368 2.7163,-3.102 3.4108,-5.0418 l 3.0865,-2.8405 c 0.1279,-0.1081 0.2325,-0.2408 0.3076,-0.3903 0.0751,-0.1495 0.1191,-0.3126 0.1293,-0.4796 0.0102,-0.1669 -0.0136,-0.3341 -0.07,-0.4916 -0.0563,-0.1575 -0.144,-0.302 -0.2579,-0.4247 -0.1138,-0.1227 -0.2514,-0.2212 -0.4044,-0.2894 -0.153,-0.0682 -0.3182,-0.1048 -0.4858,-0.1076 -0.1675,-0.0027 -0.3339,0.0284 -0.4891,0.0916 -0.1552,0.0631 -0.2959,0.157 -0.4137,0.2759 l -7.471,6.8985 c -0.2413,0.2221 -0.5612,0.3395 -0.8892,0.3263 -0.328,-0.0131 -0.6374,-0.1558 -0.86,-0.3966 -0.2226,-0.2407 -0.3402,-0.5599 -0.327,-0.8872 0.0132,-0.3274 0.1561,-0.6361 0.3974,-0.8582 l 14.697,-13.5888 c 0.1191,-0.11 0.2154,-0.2423 0.2833,-0.3894 0.0678,-0.1471 0.106,-0.3061 0.1123,-0.468 0.0063,-0.1618 -0.0194,-0.3233 -0.0757,-0.4752 -0.0562,-0.1519 -0.1419,-0.2913 -0.2521,-0.4102 -0.1103,-0.1189 -0.2429,-0.2149 -0.3903,-0.2826 -0.1474,-0.0678 -0.3068,-0.1059 -0.469,-0.1122 -0.1621,-0.0062 -0.324,0.0194 -0.4762,0.0756 -0.1523,0.0561 -0.2919,0.1416 -0.4111,0.2516 L 29.0451,35.5765 c -0.3178,0.8332 -0.9124,1.5325 -1.6845,1.9812 -0.7722,0.4486 -1.6751,0.6195 -2.5582,0.484 -0.8832,-0.1355 -1.693,-0.569 -2.2945,-1.2284 -0.6014,-0.6593 -0.9581,-1.5045 -1.0105,-2.3945 -0.0524,-0.8901 0.2027,-1.7712 0.7227,-2.4962 0.52,-0.7251 1.2734,-1.2502 2.1346,-1.4879 0.8611,-0.2377 1.7779,-0.1735 2.5974,0.1819 0.8194,0.3553 1.492,0.9804 1.9054,1.7708 L 46.4584,16.1402 c 0.2413,-0.2222 0.3842,-0.5309 0.3974,-0.8582 0.0132,-0.3273 -0.1044,-0.6465 -0.327,-0.8873 -0.2226,-0.2407 -0.532,-0.3834 -0.86,-0.3966 -0.328,-0.0131 -0.6479,0.1043 -0.8892,0.3264 z M 26.7303,41.1119 c 0.0949,-0.0188 0.1932,-0.0061 0.2801,0.0362 0.0869,0.0422 0.1576,0.1116 0.2013,0.1976 0.0438,0.0861 0.0581,0.184 0.0408,0.2789 -0.0173,0.0949 -0.0652,0.1816 -0.1364,0.2468 -0.0584,0.0574 -0.133,0.0955 -0.2137,0.1093 -1.9793,0.3868 -4.0319,0.008 -5.7416,-1.0595 -1.7097,-1.0675 -2.9487,-2.7439 -3.4656,-4.6892 -0.015,-0.0564 -0.0188,-0.1151 -0.0111,-0.173 0.0077,-0.0578 0.0267,-0.1135 0.056,-0.164 0.0293,-0.0505 0.0683,-0.0947 0.1147,-0.1302 0.0464,-0.0354 0.0994,-0.0614 0.1559,-0.0765 0.0564,-0.015 0.1153,-0.0188 0.1733,-0.0111 0.0579,0.0077 0.1138,0.0267 0.1644,0.0559 0.0506,0.0292 0.0949,0.0681 0.1304,0.1145 0.0356,0.0463 0.0616,0.0991 0.0767,0.1555 0.46,1.7268 1.5601,3.2149 3.0776,4.1633 1.5176,0.9484 3.3395,1.2863 5.0972,0.9455 z M 19.2593,30.707 c -0.3963,0.6892 -0.6731,1.4402 -0.8185,2.2214 -0.0175,0.094 -0.0651,0.1798 -0.1356,0.2446 -0.0518,0.0461 -0.1134,0.08 -0.1803,0.0989 -0.0668,0.0189 -0.1371,0.0224 -0.2055,0.0103 -0.0576,-0.0106 -0.1126,-0.0325 -0.1618,-0.0645 -0.0491,-0.032 -0.0914,-0.0733 -0.1243,-0.1217 -0.033,-0.0484 -0.056,-0.1029 -0.0678,-0.1602 -0.0117,-0.0573 -0.0119,-0.1164 -6e-4,-0.1738 0.1646,-0.8783 0.4766,-1.7226 0.9228,-2.4972 0.0291,-0.0509 0.0681,-0.0954 0.1147,-0.1311 0.0465,-0.0357 0.0997,-0.0618 0.1565,-0.0768 0.0568,-0.015 0.1159,-0.0186 0.1741,-0.0106 0.0581,0.008 0.1141,0.0274 0.1647,0.0572 0.0956,0.0576 0.1657,0.1494 0.1957,0.2567 0.03,0.1074 0.0178,0.2221 -0.0341,0.3208 z"
           fill="#00e3bb"
           id="path4" />
      </g>
    </g>
    <g
       id="g11163"
       transform="translate(-26.702457,39.243171)">
      <g
         clip-path="url(#clip0-3)"
         id="g10512"
         transform="matrix(0.26458333,0,0,0.26458333,80.94526,10.468387)">
        <path
           d="M 3.61199,27.4979 7.92967,2.55233 C 7.97973,1.91144 8.27205,1.31614 8.74405,0.893863 9.21605,0.471582 9.83023,0.25586 10.4551,0.29291 h 9.4908 c 1.059,0 1.6293,0.543923 1.6293,1.50627 0,0.33472 -0.1222,0.71131 -0.3259,2.00838 -0.0557,0.55738 -0.3211,1.07039 -0.7395,1.42986 -0.4184,0.35947 -0.9569,0.537 -1.5008,0.49482 H 13.6323 C 13.503,5.7229 13.3753,5.76578 13.2764,5.85176 13.1775,5.93773 13.1152,6.05999 13.1028,6.19248 l -0.9369,5.36402 v 0.1171 c 0,0.2092 0.1629,0.3013 0.4073,0.3013 h 4.277 c 1.059,0 1.6293,0.5356 1.6293,1.5398 -0.0626,0.6462 -0.1578,1.2886 -0.2851,1.9246 -0.0598,0.5675 -0.3302,1.0895 -0.7551,1.4573 -0.4248,0.3679 -0.9714,0.5533 -1.526,0.5177 h -4.2362 c -0.1277,-0.0101 -0.2549,0.0262 -0.3591,0.1027 -0.1043,0.0765 -0.179,0.1883 -0.2112,0.3157 l -1.0183,5.8159 c -0.0263,0.0953 -0.04,0.1938 -0.0407,0.2929 0,0.251 0.1222,0.3347 0.4073,0.3347 h 5.336 c 1.0998,0 1.6701,0.5021 1.6701,1.4644 -0.0573,0.6634 -0.1663,1.321 -0.3259,1.9665 -0.0176,0.2834 -0.0896,0.5605 -0.2119,0.8151 -0.1224,0.2547 -0.2926,0.4819 -0.5009,0.6686 -0.2083,0.1867 -0.4505,0.3292 -0.7127,0.4193 -0.2621,0.09 -0.5391,0.1259 -0.8148,0.1054 H 5.40423 c -1.22199,0 -1.83298,-0.5857 -1.83298,-1.6318 -0.00673,-0.1962 0.00694,-0.3925 0.04074,-0.5858 z"
           fill="#0040a3"
           id="path10492" />
        <path
           d="m 20.2743,29.59 c -0.8961,-0.2092 -1.3035,-0.6276 -1.3035,-1.3808 0.0441,-0.7339 0.1531,-1.4621 0.3259,-2.1757 0.0194,-0.2425 0.0856,-0.4787 0.1948,-0.6946 0.1092,-0.216 0.2592,-0.4075 0.4412,-0.5633 0.182,-0.1558 0.3924,-0.2728 0.6189,-0.3442 0.2265,-0.0713 0.4645,-0.0957 0.7003,-0.0715 h 3.9103 c 2.1181,0 3.0957,-0.9624 3.2587,-2.2594 0.0292,-0.3199 0.0427,-0.6411 0.0407,-0.9623 0.0055,-0.4715 -0.0859,-0.9389 -0.2684,-1.3715 -0.1825,-0.4327 -0.452,-0.8208 -0.7907,-1.139 l -3.0957,-3.4394 c -1.67,-1.7489 -2.5254,-3.4728 -2.5254,-5.60668 0.0204,-0.78872 0.1159,-1.57348 0.2851,-2.34309 0.6518,-4.47698 3.9511,-7.1966296 9.3279,-7.1966296 1.5028,-0.0619498 3.0075,0.0645156 4.4806,0.3765796 0.8554,0.251046 1.3034,0.66946 1.3034,1.46443 -0.0728,0.71932 -0.1953,1.43241 -0.3666,2.13389 -0.0142,0.24071 -0.0755,0.47601 -0.1804,0.69176 -0.1048,0.21576 -0.2511,0.40753 -0.4299,0.56382 -0.1787,0.1563 -0.3864,0.27389 -0.6105,0.34573 -0.2241,0.07184 -0.46,0.09643 -0.6936,0.07233 h -4.0326 c -1.7922,0 -2.7698,0.8368 -2.9735,2.17571 -0.0544,0.27542 -0.0817,0.55578 -0.0814,0.83682 0.0174,0.44828 0.124,0.88817 0.3132,1.29256 0.1891,0.40437 0.4568,0.76477 0.7866,1.05887 l 3.1364,3.3473 c 0.754,0.7653 1.3515,1.6778 1.7572,2.6838 0.4057,1.0059 0.6115,2.0851 0.6053,3.174 -0.0066,0.7992 -0.0747,1.5967 -0.2037,2.3849 -0.611,4.5607 -3.8696,7.2385 -9.3685,7.2385 -1.5267,0.0929 -3.0586,-0.0055 -4.5621,-0.2929 z"
           fill="#0040a3"
           id="path10494" />
        <path
           d="M 39.4622,27.498 43.0467,6.73649 c 0.0394,-0.20733 0.0666,-0.41692 0.0814,-0.62762 0,-0.04945 -0.0094,-0.09845 -0.0279,-0.14413 C 43.0818,5.91905 43.0548,5.87758 43.0208,5.84261 42.9867,5.80765 42.9463,5.77987 42.9018,5.76095 42.8574,5.74202 42.8097,5.73229 42.7615,5.73229 H 39.951 c -1.0998,0 -1.6293,-0.54392 -1.6293,-1.50626 0.0491,-0.65071 0.1582,-1.29515 0.3258,-1.92468 0.0498,-0.56669 0.3105,-1.09183 0.7279,-1.465968 0.4173,-0.374134 0.9591,-0.568431 1.5124,-0.542421 h 12.228 c 1.0591,0 1.6293,0.543943 1.6293,1.422609 -0.0499,0.70566 -0.1589,1.40559 -0.3258,2.09205 -0.0417,0.54773 -0.2915,1.0566 -0.6955,1.41673 -0.4039,0.36012 -0.9296,0.54258 -1.4633,0.50794 h -2.7699 c -0.1338,-0.01022 -0.2665,0.03134 -0.372,0.1165 -0.1055,0.08517 -0.1763,0.20776 -0.1982,0.34374 L 45.2544,27.498 c -0.2444,1.4226 -0.9776,2.2176 -2.3625,2.2176 H 41.344 c -1.222,0 -1.9551,-0.6276 -1.9551,-1.6737 3e-4,-0.1838 0.025,-0.3668 0.0733,-0.5439 z"
           fill="#0040a3"
           id="path10496" />
        <path
           d="M 51.9129,27.4979 56.2306,2.55233 c 0.05,-0.64089 0.3423,-1.23619 0.8143,-1.658467 0.472,-0.422281 1.0862,-0.638003 1.7111,-0.600953 h 9.4907 c 1.0591,0 1.6294,0.543923 1.6294,1.50627 0,0.33472 -0.1222,0.71131 -0.3259,2.00838 -0.0558,0.55738 -0.3211,1.07039 -0.7395,1.42986 -0.4184,0.35947 -0.9569,0.537 -1.5008,0.49482 H 61.9332 C 61.8039,5.7229 61.6762,5.76578 61.5773,5.85176 61.4784,5.93773 61.416,6.05999 61.4036,6.19248 l -0.9368,5.36402 v 0.1171 c 0,0.2092 0.1629,0.3013 0.4073,0.3013 h 4.2769 c 1.0591,0 1.6294,0.5356 1.6294,1.5398 -0.0626,0.6462 -0.1578,1.2886 -0.2852,1.9246 -0.0597,0.5675 -0.3301,1.0895 -0.755,1.4573 -0.4249,0.3679 -0.9714,0.5533 -1.526,0.5177 H 59.978 c -0.1278,-0.0101 -0.2549,0.0262 -0.3592,0.1027 -0.1042,0.0765 -0.1789,0.1883 -0.2111,0.3157 l -1.0183,5.8159 c -0.0263,0.0953 -0.04,0.1938 -0.0407,0.2929 0,0.251 0.1222,0.3347 0.4073,0.3347 h 5.336 c 1.0998,0 1.67,0.5021 1.67,1.4644 -0.0572,0.6634 -0.1662,1.321 -0.3258,1.9665 -0.0176,0.2834 -0.0896,0.5605 -0.2119,0.8151 -0.1224,0.2547 -0.2926,0.4819 -0.5009,0.6686 -0.2083,0.1867 -0.4505,0.3292 -0.7127,0.4193 -0.2621,0.09 -0.5391,0.1259 -0.8148,0.1054 h -9.4908 c -1.222,0 -1.8329,-0.5857 -1.8329,-1.6318 -0.0068,-0.1962 0.0069,-0.3925 0.0407,-0.5858 z"
           fill="#0040a3"
           id="path10498" />
        <path
           d="M 86.5493,8.49373 86.142,11.0042 c -0.1793,1.4405 -0.7205,2.8083 -1.5704,3.9689 -0.8499,1.1605 -1.9792,2.0739 -3.2768,2.6504 l 2.1588,9.0794 c 0.0806,0.3141 0.1217,0.6376 0.1222,0.9624 0.0243,0.2774 -0.0104,0.5568 -0.1016,0.8191 -0.0911,0.2623 -0.2366,0.5011 -0.4264,0.7 -0.1897,0.1989 -0.4192,0.3531 -0.6727,0.4521 -0.2534,0.0989 -0.5247,0.1401 -0.7952,0.1209 h -1.5886 c -1.3849,0 -2.1995,-0.544 -2.4439,-1.9666 L 75.918,19.0461 c -0.0407,-0.1256 -0.0814,-0.1256 -0.1629,-0.1256 h -1.222 c -0.022,-0.0027 -0.0443,-2e-4 -0.0653,0.0073 -0.021,0.0074 -0.04,0.0197 -0.0557,0.0358 -0.0157,0.0161 -0.0276,0.0357 -0.0349,0.0572 -0.0072,0.0215 -0.0096,0.0445 -0.007,0.0671 l -1.4664,8.4519 c -0.0459,0.606 -0.3201,1.1697 -0.7644,1.5713 -0.4442,0.4017 -1.0234,0.6095 -1.6144,0.5793 h -1.5071 c -1.222,0 -1.9959,-0.6276 -1.9959,-1.6736 0,-0.1674 0.0407,-0.3766 0.0407,-0.544 L 71.2989,2.98749 c 0.0033,-0.60927 0.2186,-1.19729 0.607,-1.65771 0.3885,-0.46042 0.9245,-0.76287 1.5111,-0.852754 1.794,-0.3900271 3.6248,-0.5724954 5.4583,-0.5439537 4.2769,0 7.9021,1.2970577 7.9021,6.3179777 -0.0176,0.75262 -0.0938,1.50258 -0.2281,2.24268 z M 78.7286,5.43936 c -0.5455,-0.00466 -1.0905,0.0373 -1.6293,0.1255 -0.3259,0 -0.4481,0.12551 -0.4888,0.46024 l -1.3442,7.5816 c -0.0081,0.0184 -0.0123,0.0384 -0.0123,0.0586 0,0.0202 0.0042,0.0401 0.0123,0.0586 0,0.251 0.1222,0.3012 0.3666,0.3012 h 1.2627 c 1.7923,0 3.0143,-0.7531 3.3401,-2.6025 l 0.611,-3.47278 C 80.8916,7.71522 80.9188,7.47739 80.9282,7.2385 80.8875,5.94143 80.0728,5.42261 78.7286,5.42261 Z"
           fill="#0040a3"
           id="path10500" />
        <path
           d="m 88.1295,15.1632 c 0,-0.7531 1.1079,-6.41843 1.1079,-6.41843 1.0998,-6.5272 4.6843,-8.7028999 9.2952,-8.7028999 3.8694,0 7.2504,1.7991399 7.2504,6.7782199 0,0.7113 -1.075,6.37661 -1.075,6.37661 -1.141,6.5272 -4.7253,8.7447 -9.3281,8.7447 -3.9104,0 -7.2504,-1.7991 -7.2504,-6.7782 z M 98.72,13.9498 99.8768,8.15904 c 0.0184,-0.26466 0.0184,-0.53034 0,-0.79499 0,-1.46444 -0.8147,-1.92468 -1.9959,-1.92468 -1.3849,0 -2.444,0.6276 -2.7698,2.59412 l -1.1569,5.79081 c -0.0779,0.2718 -0.119,0.5534 -0.1221,0.8368 0,1.4644 0.8961,1.8828 2.0773,1.8828 1.4257,-0.0418 2.5255,-0.6276 2.8513,-2.5941 z"
           fill="#0040a3"
           id="path10502" />
        <path
           d="m 105.449,27.4979 4.237,-24.94561 c 0.014,-0.31371 0.089,-0.62133 0.22,-0.90511 0.131,-0.28377 0.316,-0.53805 0.543,-0.748149 0.227,-0.210098 0.493,-0.371828 0.781,-0.47587 0.289,-0.104042 0.594,-0.148344 0.9,-0.130294 h 1.547 c 1.222,0 1.956,0.669436 1.956,1.757303 0,0.16736 0,0.33476 0,0.50212 l -4.318,24.94561 c -0.245,1.4226 -0.978,2.2176 -2.363,2.2176 h -1.547 c -1.182,0 -1.915,-0.6276 -1.915,-1.6737 -0.037,-0.1786 -0.051,-0.3615 -0.041,-0.5439 z"
           fill="#0040a3"
           id="path10504" />
        <path
           d="m 134.231,9.28867 -2.077,11.97493 c -1.263,7.1966 -5.703,8.7447 -11.08,8.7447 -1.682,0.005 -3.36,-0.1632 -5.01,-0.502 -0.197,-0.007 -0.391,-0.0556 -0.57,-0.1428 -0.178,-0.0872 -0.338,-0.2112 -0.467,-0.3642 -0.13,-0.153 -0.228,-0.3319 -0.288,-0.5254 -0.06,-0.1935 -0.08,-0.3975 -0.06,-0.5994 0.004,-0.2834 0.045,-0.5649 0.122,-0.8369 l 4.074,-24.02508 c 0.028,-0.60824 0.257,-1.1884 0.65,-1.64478 0.392,-0.456382 0.924,-0.761717 1.508,-0.865681 1.718,-0.33991 3.465,-0.49415753 5.214,-0.4602405 4.603,0 8.228,1.2133815 8.228,6.5271915 -0.009,0.91185 -0.091,1.8214 -0.244,2.71966 z m -7.902,-3.84935 c -0.408,0 -1.141,0.04182 -1.548,0.08366 -0.407,0.04184 -0.489,0.12551 -0.53,0.46024 l -3.136,18.04188 c 0,0.0836 0,0.1255 0,0.1673 0,0.2511 0.163,0.293 0.407,0.293 0.408,0.0418 0.896,0.0836 1.304,0.0836 0.838,0.0356 1.657,-0.2621 2.286,-0.831 0.63,-0.5689 1.022,-1.3652 1.095,-2.2234 l 2.24,-13.38912 c 0.064,-0.27391 0.091,-0.55539 0.081,-0.83682 -0.04,-1.34728 -0.774,-1.86609 -2.199,-1.86609 z"
           fill="#0040a3"
           id="path10506" />
        <path
           d="m 134.524,29.59 c -0.896,-0.2092 -1.303,-0.6276 -1.303,-1.3808 0.044,-0.7339 0.153,-1.4621 0.326,-2.1757 0.019,-0.2425 0.085,-0.4787 0.194,-0.6946 0.11,-0.216 0.26,-0.4075 0.442,-0.5633 0.182,-0.1558 0.392,-0.2728 0.618,-0.3442 0.227,-0.0713 0.465,-0.0957 0.701,-0.0715 h 3.91 c 2.118,0 3.096,-0.9624 3.259,-2.2594 0.029,-0.3199 0.043,-0.6411 0.041,-0.9623 0.005,-0.4715 -0.086,-0.9389 -0.269,-1.3715 -0.182,-0.4327 -0.452,-0.8208 -0.791,-1.139 l -3.095,-3.4394 c -1.63,-1.7489 -2.526,-3.4728 -2.526,-5.60668 0.021,-0.78872 0.116,-1.57348 0.285,-2.34309 0.652,-4.47698 3.952,-7.1966296 9.328,-7.1966296 1.503,-0.0619498 3.008,0.0645156 4.481,0.3765796 0.815,0.251046 1.303,0.66946 1.303,1.46443 -0.072,0.71932 -0.195,1.43241 -0.366,2.13389 -0.014,0.24071 -0.076,0.47601 -0.181,0.69176 -0.105,0.21576 -0.251,0.40753 -0.43,0.56382 -0.178,0.1563 -0.386,0.27389 -0.61,0.34573 -0.224,0.07184 -0.46,0.09643 -0.694,0.07233 h -4.032 c -1.792,0 -2.77,0.8368 -2.974,2.17571 -0.054,0.27542 -0.081,0.55578 -0.081,0.83682 0.017,0.44828 0.124,0.88817 0.313,1.29256 0.189,0.40437 0.457,0.76477 0.787,1.05887 l 3.136,3.3473 c 0.754,0.7653 1.352,1.6778 1.757,2.6838 0.406,1.0059 0.612,2.0851 0.606,3.174 -0.007,0.7992 -0.075,1.5967 -0.204,2.3849 -0.611,4.5607 -3.87,7.2385 -9.369,7.2385 -1.526,0.0929 -3.058,-0.0055 -4.562,-0.2929 z"
           fill="#0040a3"
           id="path10508" />
        <path
           d="m 102.533,27.9581 c -0.204,1.339 -0.815,1.7574 -2.241,1.7574 H 87.9015 c -1.2219,0 -1.7515,-0.2929 -1.7515,-1.2552 0,-0.2929 0.1956,-0.8955 0.3178,-1.5649 0.2036,-1.3389 0.8961,-1.7573 2.281,-1.7573 h 12.3832 c 1.181,0 1.71,0.2928 1.71,1.2552 0,0.2929 -0.187,0.8954 -0.309,1.5648 z"
           fill="#00e3bb"
           id="path10510" />
      </g>
    </g>
    <text
       xml:space="preserve"
       style="font-style:normal;font-weight:normal;font-size:4.93889px;line-height:1.25;font-family:sans-serif;letter-spacing:0px;word-spacing:0px;fill:#000000;fill-opacity:1;stroke:none;stroke-width:0.264583"
       x="38.790298"
       y="66.76252"
       id="text11167"><tspan
         sodipodi:role="line"
         id="tspan11165"
         x="38.790298"
         y="66.76252"
         style="font-style:normal;font-variant:normal;font-weight:normal;font-stretch:normal;font-size:4.93889px;font-family:'Bevellier Variable';-inkscape-font-specification:'Bevellier Variable';stroke-width:0.264583">The front page of the decentralized web</tspan></text>
  </g>
</svg>
